PathFileType        4      (X/Y/Z)      C:\Users\pc\Desktop\IMUTRC\Sujet_06\Sujet_06_velo_100.trc         
DataRate	CameraRate	NumFrames	NumMarkers	Units	OrigDataRate	OrigDataStartFrame	OrigNumFrames
60.0	60.0	4	64	mm	60.0	467	933
Frame#	Time	pHipOrigin			pRightASI			pLeftASI			pRightCSI			pLeftCSI			pRightIschialTub			pLeftIschialTub			pSacrum			pL5SpinalProcess			pL3SpinalProcess			pT12SpinalProcess			pIJ			pT4SpinalProcess			pT8SpinalProcess			pPX			pC7SpinalProcess			pTopOfHead			pRightAuricularis			pLeftAuricularis			pBackOfHead			pRightAcromion			pLeftAcromion			pRightArmLatEpicondyle			pRightArmMedEpicondyle			pLeftArmLatEpicondyle			pLeftArmMedEpicondyle			pRightUlnarStyloid			pRightRadialStyloid			pRightOlecranon			pLeftUlnarStyloid			pLeftRadialStyloid			pLeftOlecranon			pRightTopOfHand			pRightPinky			pRightBallHand			pLeftTopOfHand			pLeftPinky			pLeftBallHand			pRightGreaterTrochanter			pRightKneeLatEpicondyle			pRightKneeMedEpicondyle			pRightPatella			pLeftGreaterTrochanter			pLeftKneeLatEpicondyle			pLeftKneeMedEpicondyle			pLeftPatella			pRightTibialTub			pRightLatMalleolus			pRightMedMalleolus			pLeftTibialTub			pLeftLatMalleolus			pLeftMedMalleolus			pRightHeelFoot			pRightFirstMetatarsal			pRightFifthMetatarsal			pRightPivotFoot			pRightHeelCenter			pRightToe			pLeftHeelFoot			pLeftFirstMetatarsal			pLeftFifthMetatarsal			pLeftPivotFoot			pLeftHeelCenter			pLeftToe			
		X1	Y1	Z1	X2	Y2	Z2	X3	Y3	Z3	X4	Y4	Z4	X5	Y5	Z5	X6	Y6	Z6	X7	Y7	Z7	X8	Y8	Z8	X9	Y9	Z9	X10	Y10	Z10	X11	Y11	Z11	X12	Y12	Z12	X13	Y13	Z13	X14	Y14	Z14	X15	Y15	Z15	X16	Y16	Z16	X17	Y17	Z17	X18	Y18	Z18	X19	Y19	Z19	X20	Y20	Z20	X21	Y21	Z21	X22	Y22	Z22	X23	Y23	Z23	X24	Y24	Z24	X25	Y25	Z25	X26	Y26	Z26	X27	Y27	Z27	X28	Y28	Z28	X29	Y29	Z29	X30	Y30	Z30	X31	Y31	Z31	X32	Y32	Z32	X33	Y33	Z33	X34	Y34	Z34	X35	Y35	Z35	X36	Y36	Z36	X37	Y37	Z37	X38	Y38	Z38	X39	Y39	Z39	X40	Y40	Z40	X41	Y41	Z41	X42	Y42	Z42	X43	Y43	Z43	X44	Y44	Z44	X45	Y45	Z45	X46	Y46	Z46	X47	Y47	Z47	X48	Y48	Z48	X49	Y49	Z49	X50	Y50	Z50	X51	Y51	Z51	X52	Y52	Z52	X53	Y53	Z53	X54	Y54	Z54	X55	Y55	Z55	X56	Y56	Z56	X57	Y57	Z57	X58	Y58	Z58	X59	Y59	Z59	X60	Y60	Z60	X61	Y61	Z61	X62	Y62	Z62	X63	Y63	Z63	X64	Y64	Z64	
467	7.767	0.0	1250.03612	7.654263665882883E-14	35.095450000000014	1327.8842	129.91697000000008	87.16433999999998	1337.45569	-94.43866999999993	4.339070000000014	1389.14172	106.81779000000009	48.240289999999995	1397.30939	-82.31477999999991	-60.747029999999995	1201.54059	33.69163000000008	-38.796420000000005	1205.62442	-60.874649999999924	-55.76986	1271.98672	-11.996259999999914	-21.82299	1361.70346	-0.510479999999914	28.45922	1469.79744	9.699110000000086	77.20999	1567.4266	17.228680000000086	326.19625	1641.19086	58.57750000000006	199.46978	1723.37802	32.032570000000085	136.68082	1657.78143	24.503010000000085	244.13671	1548.15601	49.13363000000006	244.39195	1767.40686	39.43452000000008	522.22029	1799.82229	15.824860000000045	433.26928	1776.34024	103.37205000000006	409.27676	1781.1898	-39.17927999999994	410.17009	1834.40726	35.861170000000065	219.12323000000004	1759.87729	211.7212800000001	281.14646	1730.14187	-134.51128999999992	353.76214000000004	1494.81093	256.0053500000001	339.72396	1476.68891	197.30024000000006	427.14353	1481.15561	-171.39341999999996	403.02338	1457.54594	-118.17594999999996	533.32322	1310.27267	249.87960000000004	556.16717	1337.96617	212.10414000000003	333.2153400000001	1475.02985	247.58245000000005	634.78097	1335.41377	-148.80471	641.28958	1355.70533	-101.20252	409.65962	1462.14025	-170.75531999999998	706.24807	1291.25732	198.44882	635.92955	1278.11248	237.88334	570.07773	1299.29737	230.99187000000003	796.22004	1351.36625	-68.53184000000002	739.42922	1330.81946	-123.53598	670.00404	1330.18136	-125.5779	-22.46108999999998	1211.87779	143.82753000000008	187.60113000000004	895.7635	154.03712000000002	212.99748	903.54831	85.25004000000003	231.62997000000001	924.0951	131.44841000000002	55.004139999999985	1256.16187	-142.04085999999992	413.10535	1136.5821	-102.47870999999999	407.10722	1124.45822	-29.99065999999998	419.2311	1169.63563	-56.40795999999998	235.45856000000003	856.71184	125.45028000000003	37.64785000000001	539.95945	126.72648000000002	47.72981000000001	538.93849	68.40422000000002	439.90551	1088.34181	-61.51274999999999	237.37286	778.22565	-108.34922999999999	233.67189	777.33231	-49.388869999999976	-34.96782999999999	495.16489	82.18716000000003	96.99106000000002	402.51291	72.48806000000002	81.54906000000001	403.40624	147.27327000000002	106.56255000000002	390.00616	112.56068000000002	-4.2114499999999895	474.6181	88.69577000000002	166.54386000000002	345.21161	125.5779	166.92672	718.24433	-81.80429999999997	310.88188	651.11631	-52.962219999999995	309.0952	656.8592	-129.15126	329.76961	644.99056	-91.12055	201.76693	704.58901	-83.71859999999998	399.06717	613.46846	-95.20438	
468	7.783	0.0	1250.03612	7.654263665882883E-14	35.988790000000016	1328.01182	129.5341200000001	86.39861999999998	1337.45569	-95.20437999999993	4.977170000000013	1389.26934	106.69017000000008	47.47456999999999	1397.18177	-82.82525999999991	-60.491789999999995	1201.54059	34.202110000000076	-39.179280000000006	1205.4968	-60.491789999999924	-55.89748	1271.98672	-11.613399999999915	-21.95061	1361.70346	-0.510479999999914	28.45922	1469.79744	9.571490000000088	77.20999	1567.4266	17.101060000000086	326.19625	1641.06324	58.70512000000006	199.46978	1723.37802	32.287810000000086	136.55321	1657.78143	24.503010000000085	244.00909	1548.02839	49.00601000000007	244.39195	1767.40686	39.81738000000008	522.34791	1798.92895	16.462960000000045	433.14166	1775.70215	103.88253000000006	409.40438	1780.80694	-38.66879999999994	410.42533	1833.89678	36.371650000000066	218.86799000000002	1759.74967	211.84890000000007	281.01884	1730.52473	-134.2560499999999	353.88975000000005	1494.81093	256.13297000000006	339.72396	1476.56129	197.42786000000007	427.52639	1482.17656	-171.52103999999997	403.53386	1458.43928	-118.30356999999995	533.70608	1310.52791	249.87960000000004	556.55003	1338.22141	212.23176000000004	333.2153400000001	1474.90223	247.83769000000007	635.29145	1336.17949	-148.80471	641.67244	1356.47104	-101.20252	410.29771	1463.03359	-170.88293999999996	706.75855	1291.89542	198.57644	636.44003	1278.62296	238.01096	570.58821	1299.68023	231.11949000000004	796.73052	1351.62149	-68.65946000000001	739.81208	1331.32994	-123.6636	670.3869	1330.81946	-125.70552	-18.249629999999982	1213.02637	144.72087000000008	199.85263000000003	902.27211	151.35710000000003	222.31372	909.54644	81.42144000000003	242.22241000000002	931.36943	126.34362000000003	54.748899999999985	1254.50281	-142.04085999999992	410.17009	1127.90395	-99.16059999999999	403.53386	1116.67341	-26.417299999999983	416.67871	1161.34034	-53.34507999999998	242.73289000000003	860.92329	121.23883000000002	21.822990000000015	559.86814	125.96076000000002	30.628760000000007	558.3367	67.51088000000003	439.90551	1081.96082	-58.32225999999999	258.43013	759.72078	-109.62541999999999	254.3463	758.06172	-50.66506999999998	-54.36603999999999	519.54028	82.82526000000003	71.33948000000001	418.72062	72.61568000000001	56.91844000000002	421.27302	147.52851000000004	80.52811000000001	406.08626	112.68830000000001	-24.88585999999999	497.33443	89.20625000000003	137.95702000000003	357.71835	125.45028000000002	191.68497	695.27277	-83.46335999999998	339.46872	637.20575	-53.60032000000001	337.80966	642.82102	-129.66173	358.86693	632.22858	-91.63103	227.41852	683.78698	-85.12241999999999	429.95117	605.17318	-95.07676000000001	
469	7.8	0.0	1250.03612	7.654263665882883E-14	36.75451000000002	1328.13944	129.27888000000007	85.76051999999999	1337.45569	-95.84247999999992	5.487650000000014	1389.39696	106.43493000000008	46.83646999999999	1397.18177	-83.33573999999992	-60.236549999999994	1201.54059	34.71259000000008	-39.56214000000001	1205.36918	-60.23654999999992	-56.0251	1271.8591	-11.230539999999914	-22.07823	1361.70346	-0.510479999999914	28.20398	1469.79744	9.443870000000087	76.95475	1567.4266	16.973440000000085	325.81339	1641.19086	59.08798000000006	199.21454	1723.50564	32.67067000000009	136.42559	1657.90905	24.630620000000086	243.75385	1548.15601	49.00601000000007	244.13671	1767.53448	40.32786000000008	522.09267	1798.54609	17.483920000000047	432.88642	1775.44691	104.77587000000005	409.14914	1780.80694	-37.90308999999994	410.29771	1833.89678	37.26499000000006	218.35751000000002	1759.62205	212.2317600000001	280.63598	1731.16283	-133.8731899999999	353.88975000000005	1494.93855	256.26059000000004	339.72396	1476.68891	197.55548000000005	427.90925	1483.19752	-171.52103999999997	404.04434	1459.33262	-118.30356999999995	534.08894	1311.03839	249.75198000000003	556.93289	1338.85951	212.23176000000004	333.34296000000006	1475.02985	247.83769000000007	635.67431	1337.20045	-148.93233	642.0553	1357.36438	-101.33014	410.68057	1464.05455	-170.88293999999996	707.14141	1292.91637	198.44882	636.95051	1279.38867	237.88334	570.97107	1300.31832	230.99187000000003	797.241	1352.25959	-68.91470000000001	740.19494	1332.09566	-123.91884	670.76976	1331.7128	-125.96076	-14.038179999999983	1214.30257	145.35897000000008	214.27367000000004	910.95026	148.67709000000002	233.67189	917.58649	77.84809000000003	254.60154000000003	940.8133	121.62169000000003	54.493659999999984	1252.33327	-142.04085999999992	405.19292	1114.24863	-96.86343999999997	398.04621	1104.16666	-23.99252999999998	412.85011	1148.06788	-51.43078999999998	251.79390000000004	867.81476	117.41023000000003	10.081970000000016	583.47781	125.83314000000004	17.611530000000005	581.43589	67.25564000000004	437.35312	1071.11313	-56.152719999999995	275.91405	738.79113	-110.51875999999999	271.57497	736.62159	-51.558409999999995	-69.42517999999998	547.48902	83.71860000000004	49.516490000000005	438.75693	72.87092000000003	36.371650000000024	442.96839	148.03899000000004	58.577500000000015	425.99495	112.94354000000001	-41.34881999999999	523.36887	89.97197000000003	112.94354000000001	374.18131	125.45028000000002	212.487	670.25928	-84.61193999999999	362.95076	620.35993	-53.855560000000004	361.41932	625.71997	-130.04459000000003	382.85945	616.40372	-91.75865	248.73102	660.6878	-86.01575999999999	455.34751	593.30453	-94.82152000000002	
470	7.817	0.0	1250.03612	7.654263665882883E-14	37.13737000000001	1328.39468	129.02364000000009	85.12241999999999	1337.45569	-96.22533999999993	5.742890000000013	1389.52458	106.30731000000009	46.19836999999999	1397.18177	-83.59097999999992	-59.98130999999999	1201.41297	34.96783000000008	-39.81738000000001	1205.24156	-59.98130999999992	-56.0251	1271.73148	-11.102919999999914	-22.20585	1361.70346	-0.510479999999914	27.94874	1469.79744	9.443870000000087	76.57189	1567.55422	17.101060000000086	325.30292	1641.4461	59.72607000000006	198.57644	1723.63326	33.30877000000009	135.78749	1658.03667	25.013480000000087	243.37099	1548.41125	49.38887000000006	243.49861	1767.78972	41.09358000000008	521.5822	1798.92895	19.015350000000048	431.99308	1775.57453	106.05207000000006	408.76628	1781.31742	-36.626889999999946	409.65962	1834.15202	38.66880000000006	217.46417000000002	1759.62205	212.99748000000008	280.1255	1731.80093	-133.23508999999993	353.88975000000005	1495.19379	256.26059000000004	339.72396	1477.07177	197.55548000000005	428.03687	1484.47372	-171.13817999999998	404.4272	1460.60882	-117.79308999999996	534.4718	1311.80411	249.62436000000002	557.18812	1339.75285	212.10414000000003	333.2153400000001	1475.28509	247.83769000000007	635.92955	1338.47665	-149.18757	642.43816	1358.64058	-101.58538	410.80819	1465.33075	-170.50007999999997	707.52427	1294.06495	198.3212	637.33337	1280.40963	237.75572	571.35392	1301.21166	230.86425000000003	797.62386	1353.40817	-69.42518000000001	740.5778	1333.37186	-124.3017	671.025	1332.989	-126.216	-10.209589999999983	1215.70638	145.74183000000008	230.35377000000003	921.92556	146.76279000000002	247.32721	928.17894	75.16807000000003	268.63972	952.93718	117.92071000000003	53.98317999999998	1249.9085	-142.1684799999999	397.91859	1095.87138	-95.71485999999997	390.38902	1086.93799	-22.843949999999978	407.10722	1129.81825	-50.66506999999998	262.89682	877.64149	114.21974000000003	2.5524000000000155	610.40559	126.47124000000004	9.061010000000008	607.72557	67.76612000000004	432.1207	1055.03303	-55.131759999999986	288.67603	714.7986	-110.13589999999999	284.46457	712.11858	-51.303169999999994	-79.50714999999998	579.39397	85.12242000000005	32.28781000000001	463.38756	73.50902000000004	20.16393000000002	468.61997	148.67709000000002	40.83834000000002	450.24272	113.45402000000003	-52.96221999999999	553.61477	91.24817000000003	92.01389000000002	395.23858	125.57790000000001	228.43947	643.20388	-84.61193999999999	380.94516	600.32362	-53.72794000000001	379.2861	605.68366	-129.91697000000002	401.10909	597.26075	-91.63103	265.06636	635.29145	-85.88813999999999	474.6181	577.47968	-94.69390000000003	
